<?xml version="1.0" encoding="UTF-8"?><svg id="Dots" xmlns="http://www.w3.org/2000/svg" viewBox="0 0 370.14 388.18"><defs><style>.cls-1{fill:#fff;}.cls-2{fill:#00a7e1;}</style></defs><g><rect class="cls-1" x="157.14" y="195.69" width="3" height="60.2" transform="translate(-.39 .28) rotate(-.1)"/><rect class="cls-1" x="130.82" y="179.67" width="3" height="61.41"/><rect class="cls-1" x="144" y="233.36" width="3" height="30.24" transform="translate(-142.4 253.72) rotate(-60.69)"/><rect class="cls-1" x="143.97" y="172.28" width="3" height="30.8" transform="translate(-90.49 214.31) rotate(-58.66)"/><rect class="cls-1" x="170.29" y="157.06" width="3" height="30.3" transform="translate(-62.67 236.99) rotate(-60.52)"/><rect class="cls-1" x="156.38" y="186.18" width="30.84" height="3" transform="translate(-72.49 116.53) rotate(-31.29)"/><rect class="cls-1" x="130.35" y="170.71" width="30.22" height="3" transform="translate(-66.04 94.21) rotate(-29.57)"/><rect class="cls-1" x="156.44" y="246.37" width="30.78" height="3" transform="translate(-103.89 125.62) rotate(-31.36)"/><rect class="cls-1" x="209.3" y="246.98" width="30.16" height="3" transform="translate(-93.09 142.17) rotate(-29.4)"/><rect class="cls-1" x="196.61" y="232.49" width="3" height="30.77" transform="translate(-116.66 287.97) rotate(-58.63)"/><rect class="cls-1" x="172.41" y="216.28" width="51.4" height="3" transform="translate(-90.33 276.74) rotate(-59.26)"/><rect class="cls-1" x="236.02" y="147.57" width="3" height="93.91"/><rect class="cls-1" x="183.47" y="147.57" width="3" height="92.29"/><rect class="cls-1" x="209.75" y="163.16" width="3" height="92.73"/><rect class="cls-1" x="196.61" y="140.08" width="3" height="30.56" transform="translate(-36.58 246.5) rotate(-59.33)"/><rect class="cls-1" x="222.88" y="124.74" width="3" height="30.39" transform="translate(-9.37 263.59) rotate(-59.83)"/><rect class="cls-1" x="209.11" y="153.86" width="30.55" height="3" transform="translate(-47.86 136.2) rotate(-30.67)"/><rect class="cls-1" x="182.91" y="138.43" width="30.4" height="3" transform="translate(-43.49 118.52) rotate(-30.17)"/><rect class="cls-1" x="170.3" y="192.06" width="3" height="51.44" transform="translate(-87.31 118.76) rotate(-30.82)"/></g><g><g><circle class="cls-2" cx="158.72" cy="164.76" r="4.16"/><path class="cls-2" d="M158.72,169.92c-2.85,0-5.16-2.32-5.16-5.16s2.32-5.16,5.16-5.16,5.16,2.32,5.16,5.16-2.32,5.16-5.16,5.16Zm0-8.33c-1.74,0-3.16,1.42-3.16,3.16s1.42,3.16,3.16,3.16,3.16-1.42,3.16-3.16-1.42-3.16-3.16-3.16Z"/></g><g><circle class="cls-2" cx="237.32" cy="241.08" r="4.16"/><path class="cls-2" d="M237.32,246.24c-2.85,0-5.16-2.32-5.16-5.16s2.32-5.16,5.16-5.16,5.16,2.32,5.16,5.16-2.32,5.16-5.16,5.16Zm0-8.33c-1.74,0-3.16,1.42-3.16,3.16s1.42,3.16,3.16,3.16,3.16-1.42,3.16-3.16-1.42-3.16-3.16-3.16Z"/></g><g><circle class="cls-2" cx="132.48" cy="241.08" r="4.16"/><path class="cls-2" d="M132.48,246.24c-2.85,0-5.16-2.32-5.16-5.16s2.32-5.16,5.16-5.16,5.16,2.32,5.16,5.16-2.32,5.16-5.16,5.16Zm0-8.33c-1.74,0-3.16,1.42-3.16,3.16s1.42,3.16,3.16,3.16,3.16-1.42,3.16-3.16-1.42-3.16-3.16-3.16Z"/></g><g><circle class="cls-2" cx="184.96" cy="239.86" r="4.16"/><path class="cls-2" d="M184.96,245.03c-2.85,0-5.16-2.32-5.16-5.16s2.32-5.16,5.16-5.16,5.16,2.32,5.16,5.16-2.32,5.16-5.16,5.16Zm0-8.33c-1.74,0-3.16,1.42-3.16,3.16s1.42,3.16,3.16,3.16,3.16-1.42,3.16-3.16-1.42-3.16-3.16-3.16Z"/></g><g><circle class="cls-2" cx="158.72" cy="255.88" r="4.16"/><path class="cls-2" d="M158.72,261.05c-2.85,0-5.16-2.32-5.16-5.16s2.32-5.16,5.16-5.16,5.16,2.32,5.16,5.16-2.32,5.16-5.16,5.16Zm0-8.33c-1.74,0-3.16,1.42-3.16,3.16s1.42,3.16,3.16,3.16,3.16-1.42,3.16-3.16-1.42-3.16-3.16-3.16Z"/></g><g><circle class="cls-2" cx="211.25" cy="255.88" r="4.16"/><path class="cls-2" d="M211.25,261.05c-2.85,0-5.16-2.32-5.16-5.16s2.32-5.16,5.16-5.16,5.16,2.32,5.16,5.16-2.32,5.16-5.16,5.16Zm0-8.33c-1.74,0-3.16,1.42-3.16,3.16s1.42,3.16,3.16,3.16,3.16-1.42,3.16-3.16-1.42-3.16-3.16-3.16Z"/></g><g><circle class="cls-2" cx="211.25" cy="163.16" r="4.16"/><path class="cls-2" d="M211.25,168.32c-2.85,0-5.16-2.32-5.16-5.16s2.32-5.16,5.16-5.16,5.16,2.32,5.16,5.16-2.32,5.16-5.16,5.16Zm0-8.33c-1.74,0-3.16,1.42-3.16,3.16s1.42,3.16,3.16,3.16,3.16-1.42,3.16-3.16-1.42-3.16-3.16-3.16Z"/></g><g><circle class="cls-2" cx="211.25" cy="132.29" r="4.16"/><path class="cls-2" d="M211.25,137.46c-2.85,0-5.16-2.32-5.16-5.16s2.32-5.16,5.16-5.16,5.16,2.32,5.16,5.16-2.32,5.16-5.16,5.16Zm0-8.33c-1.74,0-3.16,1.42-3.16,3.16s1.42,3.16,3.16,3.16,3.16-1.42,3.16-3.16-1.42-3.16-3.16-3.16Z"/></g><g><circle class="cls-2" cx="184.96" cy="147.57" r="4.16"/><path class="cls-2" d="M184.96,152.73c-2.85,0-5.16-2.32-5.16-5.16s2.32-5.16,5.16-5.16,5.16,2.32,5.16,5.16-2.32,5.16-5.16,5.16Zm0-8.33c-1.74,0-3.16,1.42-3.16,3.16s1.42,3.16,3.16,3.16,3.16-1.42,3.16-3.16-1.42-3.16-3.16-3.16Z"/></g><g><circle class="cls-2" cx="237.66" cy="147.57" r="4.16"/><path class="cls-2" d="M237.66,152.73c-2.85,0-5.16-2.32-5.16-5.16s2.32-5.16,5.16-5.16,5.16,2.32,5.16,5.16-2.32,5.16-5.16,5.16Zm0-8.33c-1.74,0-3.16,1.42-3.16,3.16s1.42,3.16,3.16,3.16,3.16-1.42,3.16-3.16-1.42-3.16-3.16-3.16Z"/></g><g><circle class="cls-2" cx="132.48" cy="179.67" r="4.16"/><path class="cls-2" d="M132.48,184.83c-2.85,0-5.16-2.32-5.16-5.16s2.32-5.16,5.16-5.16,5.16,2.32,5.16,5.16-2.32,5.16-5.16,5.16Zm0-8.33c-1.74,0-3.16,1.42-3.16,3.16s1.42,3.16,3.16,3.16,3.16-1.42,3.16-3.16-1.42-3.16-3.16-3.16Z"/></g><g><circle class="cls-2" cx="184.96" cy="179.67" r="4.16"/><path class="cls-2" d="M184.96,184.83c-2.85,0-5.16-2.32-5.16-5.16s2.32-5.16,5.16-5.16,5.16,2.32,5.16,5.16-2.32,5.16-5.16,5.16Zm0-8.33c-1.74,0-3.16,1.42-3.16,3.16s1.42,3.16,3.16,3.16,3.16-1.42,3.16-3.16-1.42-3.16-3.16-3.16Z"/></g><g><circle class="cls-2" cx="158.72" cy="195.69" r="4.16"/><path class="cls-2" d="M158.72,200.85c-2.85,0-5.16-2.32-5.16-5.16s2.32-5.16,5.16-5.16,5.16,2.32,5.16,5.16-2.32,5.16-5.16,5.16Zm0-8.33c-1.74,0-3.16,1.42-3.16,3.16s1.42,3.16,3.16,3.16,3.16-1.42,3.16-3.16-1.42-3.16-3.16-3.16Z"/></g><g><circle class="cls-2" cx="211.25" cy="195.69" r="4.16"/><path class="cls-2" d="M211.25,200.85c-2.85,0-5.16-2.32-5.16-5.16s2.32-5.16,5.16-5.16,5.16,2.32,5.16,5.16-2.32,5.16-5.16,5.16Zm0-8.33c-1.74,0-3.16,1.42-3.16,3.16s1.42,3.16,3.16,3.16,3.16-1.42,3.16-3.16-1.42-3.16-3.16-3.16Z"/></g></g></svg>