<?xml version="1.0" encoding="UTF-8"?><svg xmlns="http://www.w3.org/2000/svg" viewBox="0 0 370.14 388.18"><defs><style>.cls-1{fill:#fff;}.cls-2{fill:#00a7e1;}</style></defs><g id="Lines"><g><rect class="cls-1" x="82.1" y="195.69" width="1.76" height="60.2" transform="translate(-.39 .14) rotate(-.1)"/><rect class="cls-1" x="55.78" y="179.67" width="1.76" height="61.41"/><rect class="cls-1" x="68.96" y="233.36" width="1.76" height="30.24" transform="translate(-181.02 187.74) rotate(-60.69)"/><rect class="cls-1" x="68.93" y="172.28" width="1.76" height="30.8" transform="translate(-126.79 149.68) rotate(-58.66)"/><rect class="cls-1" x="95.25" y="157.06" width="1.76" height="30.3" transform="translate(-101.09 171.13) rotate(-60.52)"/><rect class="cls-1" x="80.72" y="186.8" width="30.84" height="1.76" transform="translate(-83.45 77.17) rotate(-31.27)"/><rect class="cls-1" x="54.69" y="171.33" width="30.22" height="1.76" transform="translate(-75.93 56.92) rotate(-29.59)"/><rect class="cls-1" x="80.78" y="246.99" width="30.78" height="1.76" transform="translate(-114.94 86.25) rotate(-31.36)"/><rect class="cls-1" x="133.64" y="247.6" width="30.16" height="1.76" transform="translate(-102.79 104.95) rotate(-29.39)"/><rect class="cls-1" x="121.57" y="232.49" width="1.76" height="30.77" transform="translate(-152.93 223.37) rotate(-58.63)"/><rect class="cls-1" x="96.75" y="216.9" width="51.4" height="1.76" transform="translate(-127.31 211.64) rotate(-59.24)"/><rect class="cls-1" x="160.98" y="147.57" width="1.76" height="93.91"/><rect class="cls-1" x="108.43" y="147.57" width="1.76" height="92.29"/><rect class="cls-1" x="134.71" y="163.16" width="1.76" height="92.73"/><rect class="cls-1" x="121.57" y="140.08" width="1.76" height="30.56" transform="translate(-73.65 181.42) rotate(-59.33)"/><rect class="cls-1" x="147.84" y="124.73" width="1.76" height="30.39" transform="translate(-47 198.18) rotate(-59.83)"/><rect class="cls-1" x="133.45" y="154.48" width="30.55" height="1.76" transform="translate(-58.44 97.59) rotate(-30.67)"/><rect class="cls-1" x="107.25" y="139.05" width="30.4" height="1.76" transform="translate(-53.72 80.45) rotate(-30.16)"/><rect class="cls-1" x="95.26" y="192.06" width="1.76" height="51.44" transform="translate(-97.99 80) rotate(-30.82)"/></g></g><g id="Dots"><g><circle class="cls-2" cx="83.06" cy="164.76" r="4.16"/><circle class="cls-2" cx="161.66" cy="241.08" r="4.16"/><circle class="cls-2" cx="56.82" cy="241.08" r="4.16"/><circle class="cls-2" cx="109.3" cy="239.86" r="4.16"/><circle class="cls-2" cx="83.06" cy="255.88" r="4.16"/><circle class="cls-2" cx="135.59" cy="255.88" r="4.16"/><circle class="cls-2" cx="135.59" cy="163.16" r="4.16"/><circle class="cls-2" cx="135.59" cy="132.29" r="4.16"/><circle class="cls-2" cx="109.3" cy="147.57" r="4.16"/><circle class="cls-2" cx="162" cy="147.57" r="4.16"/><circle class="cls-2" cx="56.82" cy="179.67" r="4.16"/><circle class="cls-2" cx="109.3" cy="179.67" r="4.16"/><circle class="cls-2" cx="83.06" cy="195.69" r="4.16"/><circle class="cls-2" cx="135.59" cy="195.69" r="4.16"/></g></g><g id="typography"><g><path class="cls-1" d="M183.07,167.53h10.58c2.89,0,5.24,.85,6.66,2.3,1.06,1.08,1.65,2.45,1.65,4.08v.08c0,3.52-2.27,5.3-4.36,6.16,3.08,.82,5.79,2.6,5.79,6.2v.07c0,4.34-3.66,7.09-9.19,7.09h-11.13v-25.97Zm16.95,6.57c0-2.86-2.31-4.79-6.41-4.79h-8.64v10.2h8.46c3.85,0,6.59-1.89,6.59-5.34v-.07Zm-6.37,7.2h-8.68v10.42h9.3c4.39,0,7.18-2.04,7.18-5.31v-.07c0-3.19-2.75-5.05-7.8-5.05Z"/><path class="cls-1" d="M208.74,186.15v-11.57h1.79v11.24c0,3.89,2.16,6.45,5.93,6.45s6.48-2.82,6.48-6.75v-10.94h1.79v18.92h-1.79v-3.52c-1.25,2.23-3.33,3.97-6.74,3.97-4.73,0-7.47-3.26-7.47-7.79Z"/><path class="cls-1" d="M231.58,167.15h2.23v2.49h-2.23v-2.49Zm.22,7.42h1.79v18.92h-1.79v-18.92Z"/><path class="cls-1" d="M240.92,166.41h1.79v27.08h-1.79v-27.08Z"/><path class="cls-1" d="M248.57,184.11v-.07c0-6.16,4.58-9.9,9.08-9.9,3.73,0,6.15,2.15,7.69,4.53v-12.24h1.79v27.08h-1.79v-4.23c-1.61,2.49-3.99,4.67-7.69,4.67-4.51,0-9.08-3.67-9.08-9.83Zm16.88-.04v-.07c0-4.86-3.74-8.12-7.62-8.12s-7.32,3.01-7.32,8.09v.07c0,4.97,3.41,8.16,7.32,8.16s7.62-3.3,7.62-8.12Z"/><path class="cls-1" d="M273.97,167.15h2.23v2.49h-2.23v-2.49Zm.22,7.42h1.79v18.92h-1.79v-18.92Z"/><path class="cls-1" d="M283.05,174.57h1.79v3.52c1.25-2.23,3.33-3.97,6.74-3.97,4.73,0,7.47,3.26,7.47,7.79v11.57h-1.79v-11.24c0-3.9-2.16-6.46-5.93-6.46s-6.48,2.82-6.48,6.75v10.94h-1.79v-18.92Z"/><path class="cls-1" d="M305.13,196.61l1.06-1.48c2.23,1.74,4.8,2.67,7.54,2.67,4.28,0,7.32-2.49,7.32-7.35v-2.74c-1.61,2.34-4.1,4.38-7.8,4.38-4.5,0-8.97-3.49-8.97-8.9v-.07c0-5.45,4.47-8.98,8.97-8.98,3.74,0,6.26,2,7.8,4.23v-3.78h1.79v15.99c0,2.74-.88,4.9-2.38,6.42-1.61,1.63-4.03,2.52-6.78,2.52-3.11,0-6.01-.96-8.57-2.89Zm16.04-13.47v-.07c0-4.38-3.85-7.2-7.73-7.2s-7.22,2.74-7.22,7.16v.07c0,4.27,3.37,7.23,7.22,7.23s7.73-2.89,7.73-7.2Z"/></g><g><path class="cls-2" d="M183.07,206.03h7.24l8.03,13.08,8.03-13.08h7.24v30.93h-6.67v-20.19l-8.59,13.21h-.18l-8.51-13.08v20.06h-6.59v-30.93Z"/><path class="cls-2" d="M219.58,221.58v-.09c0-8.79,6.85-16,16.27-16s16.18,7.11,16.18,15.91v.09c0,8.79-6.85,16-16.27,16s-16.18-7.11-16.18-15.91Zm25.43,0v-.09c0-5.3-3.84-9.72-9.25-9.72s-9.16,4.33-9.16,9.63v.09c0,5.3,3.84,9.72,9.25,9.72s9.16-4.33,9.16-9.63Z"/><path class="cls-2" d="M263.8,212.3h-9.29v-6.28h25.3v6.28h-9.29v24.66h-6.72v-24.66Z"/><path class="cls-2" d="M285.26,206.03h6.72v30.93h-6.72v-30.93Z"/><path class="cls-2" d="M299.6,206.03h23.25v6.19h-16.53v6.58h14.57v6.19h-14.57v11.97h-6.72v-30.93Z"/></g></g></svg>